<svg width="80" height="40" xmlns="http://www.w3.org/2000/svg" xmlns:xlink="http://www.w3.org/1999/xlink"><defs><path id="a" d="M0 35.077h79.991V.223H0z"/></defs><g fill="none" fill-rule="evenodd"><path d="M52.46 31.041H15.668V5.417c0-.783.634-1.417 1.417-1.417H52.46v27.041z" fill="#FFF"/><path fill="#DDDDDC" d="M14.944 33.074h37.75v-2.22h-37.75z"/><g transform="translate(0 2.7)"><path d="M76.442 26.048v-2.12h1.755c.145.794.228 1.547.268 2.12h-2.023z" fill="#DDDDDC"/><path d="M78.198 23.927h-1.032c.143.796.226 1.548.268 2.12h1.031a20.296 20.296 0 0 0-.267-2.12M16.545 28.158l.01-1.05V2.72c0-1.177.918-2.12 2.065-2.12h-1.033c-1.146 0-2.064.943-2.064 2.12v24.388l-.01 1.05-1.023-.01v2.142h1.033v-2.143l1.022.011z" fill="#B9B9BA"/><path d="M78.507 28.168v-1.06s0-.424-.041-1.06h-2.024v-2.121h1.756c-.269-1.485-.785-3.106-1.756-3.976-2.065-1.856-5.183-4.506-5.183-4.506h-4.11V5.9h1.26C67.211 3.017 65.714.6 64.051.6H52.694v29.689h10.325l1.053-.043c-.01-.158-.02-.317-.02-.487 0-1.643.815-3.096 2.055-3.956a4.466 4.466 0 0 1 2.59-.816c2.562 0 4.648 2.143 4.648 4.772 0 .17-.01.33-.021.487l1.053.043h5.163v-2.12h-1.033z" fill="#FFF"/><path d="M67.376 5.901h1.033C67.21 3.017 65.714.6 64.052.6h-1.033c1.663 0 3.159 2.417 4.357 5.301M77.165 23.927h1.032c-.268-1.484-.784-3.107-1.755-3.977-2.065-1.855-5.182-4.505-5.182-4.505h-1.033s3.118 2.65 5.183 4.505c.97.87 1.486 2.493 1.755 3.977" fill="#B9B9BA"/><mask id="b" fill="#fff"><use xlink:href="#a"/></mask><path fill="#B9B9BA" mask="url(#b)" d="M78.507 30.289h1.033v-2.121h-1.033zM78.466 26.048h-1.032c.04.636.04 1.06.04 1.06v1.06h1.033v-1.06s0-.424-.041-1.06"/><path d="M68.409 5.901c1.755 4.263 2.85 9.543 2.85 9.543h-4.11V5.901h1.26z" fill="#DDDDDC" mask="url(#b)"/><path d="M69.019 7.49l-1.87 7.164v.79h.863l1.61-6.167c-.188-.59-.39-1.19-.603-1.787" fill="#FFF" mask="url(#b)"/><path fill="#DDDDDC" mask="url(#b)" d="M52.694 30.424H79.54v-2.22H52.694z"/><path d="M73.345 29.844c0 2.634-2.081 4.771-4.647 4.771-2.565 0-4.646-2.137-4.646-4.771s2.08-4.771 4.646-4.771 4.647 2.137 4.647 4.771" fill="#CCCBCB" mask="url(#b)"/><path d="M65.084 29.844c0-2.453 1.812-4.451 4.13-4.718-.17-.02-.338-.053-.516-.053-2.565 0-4.646 2.137-4.646 4.771s2.081 4.771 4.646 4.771c.178 0 .345-.033.517-.053-2.32-.268-4.13-2.266-4.13-4.718" fill="#DDDDDC" mask="url(#b)"/><path d="M72.312 29.844c0 2.452-1.811 4.45-4.13 4.718.171.02.338.053.515.053 2.566 0 4.648-2.137 4.648-4.771s-2.082-4.771-4.648-4.771c-.177 0-.344.033-.516.053 2.32.267 4.13 2.265 4.13 4.718" fill="#B9B9BA" mask="url(#b)"/><path d="M71.28 29.844c0 1.462-1.158 2.651-2.582 2.651s-2.582-1.189-2.582-2.651c0-1.462 1.158-2.651 2.582-2.651s2.582 1.189 2.582 2.651" fill="#DDDDDC" mask="url(#b)"/><path d="M36.173 29.844c0 2.634-2.081 4.771-4.646 4.771-2.566 0-4.647-2.137-4.647-4.771s2.081-4.771 4.647-4.771c2.565 0 4.646 2.137 4.646 4.771" fill="#CCCBCB" mask="url(#b)"/><path d="M27.913 29.844c0-2.453 1.811-4.451 4.13-4.718-.172-.02-.339-.053-.516-.053-2.565 0-4.646 2.137-4.646 4.771s2.08 4.771 4.646 4.771c.177 0 .344-.033.516-.053-2.319-.268-4.13-2.266-4.13-4.718" fill="#DDDDDC" mask="url(#b)"/><path d="M35.14 29.844c0 2.452-1.81 4.45-4.13 4.718.172.02.34.053.516.053 2.566 0 4.646-2.137 4.646-4.771s-2.08-4.771-4.646-4.771c-.177 0-.344.033-.516.053 2.32.267 4.13 2.265 4.13 4.718" fill="#B9B9BA" mask="url(#b)"/><path d="M34.108 29.844c0 1.462-1.158 2.651-2.582 2.651s-2.58-1.189-2.58-2.651c0-1.462 1.156-2.651 2.58-2.651 1.424 0 2.582 1.189 2.582 2.651" fill="#DDDDDC" mask="url(#b)"/><path d="M17.588.685H64.05c4.13 0 7.207 14.844 7.207 14.844s3.121 2.649 5.185 4.505c2.064 1.857 2.066 7.159 2.066 7.159M15.522 27.193V2.805M37.206 30.374h25.813M74.377 30.374h5.163M79.54 30.374l.001-2.12M79.542 28.253h-2.067M52.694 1.745v27.523M67.15 5.986v9.543M67.15 15.53h4.13M67.15 5.986h1.253M14.49 30.374h11.358M14.49 30.374v-2.142M17.588 28.253l-3.098-.02M15.522 2.805c0-1.172.924-2.12 2.065-2.12M73.345 29.844c0 2.634-2.081 4.771-4.647 4.771-2.565 0-4.646-2.137-4.646-4.771s2.08-4.771 4.646-4.771 4.647 2.137 4.647 4.771z" stroke="#434343" stroke-linecap="round" stroke-linejoin="round" mask="url(#b)"/><path d="M71.28 29.844c0 1.462-1.158 2.651-2.582 2.651s-2.582-1.189-2.582-2.651c0-1.462 1.158-2.651 2.582-2.651s2.582 1.189 2.582 2.651" fill="#FFF" mask="url(#b)"/><path d="M71.28 29.844c0 1.462-1.158 2.651-2.582 2.651s-2.582-1.189-2.582-2.651c0-1.462 1.158-2.651 2.582-2.651s2.582 1.189 2.582 2.651zM36.173 29.844c0 2.634-2.081 4.771-4.646 4.771-2.566 0-4.647-2.137-4.647-4.771s2.081-4.771 4.647-4.771c2.565 0 4.646 2.137 4.646 4.771z" stroke="#434343" stroke-linecap="round" stroke-linejoin="round" mask="url(#b)"/><path d="M34.108 29.844c0 1.462-1.158 2.651-2.582 2.651s-2.58-1.189-2.58-2.651c0-1.462 1.156-2.651 2.58-2.651 1.424 0 2.582 1.189 2.582 2.651" fill="#FFF" mask="url(#b)"/><path d="M34.108 29.844c0 1.462-1.158 2.651-2.582 2.651s-2.58-1.189-2.58-2.651c0-1.462 1.156-2.651 2.58-2.651 1.424 0 2.582 1.189 2.582 2.651zM78.198 24.012h-1.756M76.442 24.012v2.12M76.442 26.133h2.027M65.084 17.65v6.362M63.019 17.783v1.988M13.933 6.208h-5.3M5.843 6.208h.899M.45 2.516h8.988M12.135 2.516h-.899" stroke="#434343" stroke-linecap="round" stroke-linejoin="round" mask="url(#b)"/><path d="M60.046 15.36h-4.093c-.563 0-1.024-.473-1.024-1.051V6.953c0-.578.461-1.052 1.024-1.052h7.163c.563 0 1.024.474 1.024 1.052v7.356c0 .578-.46 1.051-1.023 1.051h-3.07z" fill="#94C1FF" mask="url(#b)"/><path d="M64.14 6.952v7.357c0 .578-.46 1.05-1.023 1.05h-3.07V5.902h3.07c.563 0 1.023.473 1.023 1.051" fill="#FFF" mask="url(#b)"/><path d="M60.046 15.34v.02h-4.093c-.563 0-1.024-.473-1.024-1.05V6.951c0-.578.461-1.051 1.024-1.051h4.093v9.438z" fill="#DDDDDC" mask="url(#b)"/><path d="M58.245 5.901l-2.458 9.424c.056.011.107.035.165.035h.886l2.467-9.459h-1.06z" fill="#FFF" mask="url(#b)"/><path d="M54.929 14.393c0 .578.461 1.052 1.024 1.052h7.164c.563 0 1.023-.474 1.023-1.052V7.036c0-.578-.46-1.05-1.023-1.05h-7.164c-.563 0-1.024.472-1.024 1.05v7.357zM60.046 5.986v9.436" stroke="#434343" stroke-linecap="round" stroke-linejoin="round" mask="url(#b)"/></g></g></svg>